# xmcd
#
# Track frame offsets:
#	150
#	17497
#	32525
#	49863
#	68606
#	85630
#	109576
#	127047
#	145475
#	162520
#	177290
#	196605
#	213943
#
# Disc length: 3092 seconds
#
# Revision: 0
# Processed by: cddbd v1.5.2PL0 Copyright (c) Steve Scherf et al.
# Submitted via: dBpowerAMP V4.0
#
DISCID=a70c120d
DTITLE=Bart Crow Band - Desperate Hearts
DYEAR=2008
DGENRE=Country
TTITLE0=Drifting In The Wind
TTITLE1=Back Down
TTITLE2=Hollywood
TTITLE3=Understand
TTITLE4=Saint Valentine
TTITLE5=Sweet Imitations
TTITLE6=Roses
TTITLE7=Once A Day
TTITLE8=Desperate Hearts
TTITLE9=Change
TTITLE10=New York
TTITLE11=Tami
TTITLE12=Forever
EXTD=
EXTT0=
EXTT1=
EXTT2=
EXTT3=
EXTT4=
EXTT5=
EXTT6=
EXTT7=
EXTT8=
EXTT9=
EXTT10=
EXTT11=
EXTT12=
PLAYORDER=
